# xmcd
#
# Track frame offsets:
#   150
#   11957
#   24516
#   36448
#   49289
#   61480
#   74595
#   87232
#   98839
#   112513
#   124175
#   137512
#   149144
#   162555
#   175761
#   188473
#
# Disc length: 2634 seconds
#
# Revision: 0
# Processed by: cddbd v1.4PL0 Copyright (c) Steve Scherf et al.
# Submitted via: uFREEDB 1.6.0
#
DISCID=e40a4810
DTITLE=Robbins, Marty - Singles 1952-53
DYEAR=1900
DGENRE=Country
TTITLE0=Love Me Or Leave Me Alone
TTITLE1=Tomorrow You'll Be Gone
TTITLE2=Crying 'Cause I Love You
TTITLE3=I Wish Somebody Loved Me
TTITLE4=I'll Go On Alone
TTITLE5=You're Breaking My Heart
TTITLE6=I Couldn't Keep From Crying
TTITLE7=After You Leave
TTITLE8=A Castle In The Sky
TTITLE9=A Half-Way Chance With You
TTITLE10=Sing Me Something Sentimental
TTITLE11=At The End Of A Long Lonely Day
TTITLE12=Blessed Jesus Should I Fall Don't Let Me Lay
TTITLE13=Kneel And Let The Lord Take Your Load
TTITLE14=Don't Make Me Ashamed
TTITLE15=It's A Long Long Ride
EXTD=
EXTT0=
EXTT1=
EXTT2=
EXTT3=
EXTT4=
EXTT5=
EXTT6=
EXTT7=
EXTT8=
EXTT9=
EXTT10=
EXTT11=
EXTT12=
EXTT13=
EXTT14=
EXTT15=
PLAYORDER=
